PathFileType	4	(X/Y/Z)	Kaydara	
DataRate	CameraRate	NumFrames	NumMarkers	Units	OrigDataRate	OrigDataStartFrame	OrigNumFrames	
60.00	60.00	4	74	mm	60.00	1227	200	
Frame#	Time	Z_lasi			Z_rasi			Z_rpsi			Z_lpsi			Z_fneck			Z_bneck			Z_fhead			Z_rhead			Z_lhead			Z_rshld			Z_relbtop			Z_relbext			Z_relblow			Z_rwrext			Z_rwrtop			Z_rwrlow			Z_lshld			Z_lelbext			Z_lelblow			Z_lelbtop			Z_lwrext			Z_lwrtop			Z_lwrlow			Z_rtopleg			Z_ltopleg			Z_rkneefr			Z_rkneebk			Z_rkneeis			Z_lkneefr			Z_lknssbk			Z_lkneeis			Z_rankfr			Z_rankis			Z_rankbk			Z_lankfr			Z_lankbk			Z_lankis			A_lasi			A_rasi			A_rpsi			A_lpsi			A_fneck			A_bneck			A_fhead			A_rhead			A_lhead			A_rshld			A_relbtop			A_relbext			A_relblow			A_rwrext			A_rwrtop			A_rwrlow			A_lshld			A_lelbext			A_lelblow			A_lelbtop			A_lwrext			A_lwrtop			A_lwrlow			A_rtopleg			A_ltopleg			A_rkneefr			A_rkneebk			A_rkneeis			A_lkneefr			A_lknssbk			A_lkneeis			A_rankfr			A_rankis			A_rankbk			A_lankfr			A_lankbk			A_lankis			
		X1	Y1	Z1	X2	Y2	Z2	X3	Y3	Z3	X4	Y4	Z4	X5	Y5	Z5	X6	Y6	Z6	X7	Y7	Z7	X8	Y8	Z8	X9	Y9	Z9	X10	Y10	Z10	X11	Y11	Z11	X12	Y12	Z12	X13	Y13	Z13	X14	Y14	Z14	X15	Y15	Z15	X16	Y16	Z16	X17	Y17	Z17	X18	Y18	Z18	X19	Y19	Z19	X20	Y20	Z20	X21	Y21	Z21	X22	Y22	Z22	X23	Y23	Z23	X24	Y24	Z24	X25	Y25	Z25	X26	Y26	Z26	X27	Y27	Z27	X28	Y28	Z28	X29	Y29	Z29	X30	Y30	Z30	X31	Y31	Z31	X32	Y32	Z32	X33	Y33	Z33	X34	Y34	Z34	X35	Y35	Z35	X36	Y36	Z36	X37	Y37	Z37	X38	Y38	Z38	X39	Y39	Z39	X40	Y40	Z40	X41	Y41	Z41	X42	Y42	Z42	X43	Y43	Z43	X44	Y44	Z44	X45	Y45	Z45	X46	Y46	Z46	X47	Y47	Z47	X48	Y48	Z48	X49	Y49	Z49	X50	Y50	Z50	X51	Y51	Z51	X52	Y52	Z52	X53	Y53	Z53	X54	Y54	Z54	X55	Y55	Z55	X56	Y56	Z56	X57	Y57	Z57	X58	Y58	Z58	X59	Y59	Z59	X60	Y60	Z60	X61	Y61	Z61	X62	Y62	Z62	X63	Y63	Z63	X64	Y64	Z64	X65	Y65	Z65	X66	Y66	Z66	X67	Y67	Z67	X68	Y68	Z68	X69	Y69	Z69	X70	Y70	Z70	X71	Y71	Z71	X72	Y72	Z72	X73	Y73	Z73	X74	Y74	Z74	

26	20.433	-215.24763	1081.79298	694.92287	-277.18472	1091.20399	498.73730	-112.98525	1112.39548	408.76495	-31.88657	1097.11723	639.29913	-223.68896	1419.20425	582.97134	-149.90933	1520.98297	579.75681	-399.10950	1510.01572	566.26171	-281.19764	1616.96716	510.89458	-284.97671	1598.76770	658.05321	-179.16487	1436.25977	368.12012	-141.96549	1117.70424	283.10171	-112.49194	1100.82504	334.55612	-205.69630	1126.52351	325.95165	-236.23941	888.98018	294.79862	-267.33099	901.95129	326.61118	-240.84019	896.69746	360.34264	-105.81096	1443.66974	755.83496	-75.66374	1123.61137	766.14731	-133.02428	1149.63127	829.68941	-64.27530	1142.83173	834.10240	-235.66275	909.78333	816.92017	-223.01575	899.38400	861.49345	-178.79356	888.22212	849.94377	-170.13573	924.55307	365.19329	-130.37198	894.59663	728.95851	-240.50865	422.37373	413.24528	-172.27489	452.66319	358.83160	-178.57441	429.69589	481.45481	-187.23232	446.96358	691.30219	-82.59375	471.65531	670.74585	-183.38188	443.08575	597.78023	-202.86283	181.46685	378.87318	-179.66806	175.01938	441.00929	-126.71829	173.15704	371.31413	-123.85208	163.40364	679.55864	-70.03267	166.39090	617.90928	-149.97928	173.93734	612.47837	-970.41916	1033.97018	471.42742	-963.66539	1040.24979	630.91003	-1121.69632	1034.99466	647.59346	-1093.94203	1039.51202	465.79857	-1046.93443	1378.06290	563.01323	-1183.71422	1411.16028	547.93758	-985.56770	1583.96744	584.66270	-1139.75166	1552.96829	654.88419	-1126.19278	1562.73727	492.15279	-1123.22144	1344.57458	735.50224	-1020.79155	1075.19798	765.26299	-1074.57352	1045.68726	784.98268	-1046.25465	1059.73793	715.88242	-888.43491	898.13156	665.68268	-880.30022	935.33325	640.23453	-915.50957	931.10901	620.16060	-1071.62277	1351.94626	384.96532	-1020.70946	1043.47786	338.80825	-995.61165	1067.62840	405.85781	-977.53235	1062.80495	354.17385	-928.31726	890.00023	496.77952	-895.41595	878.67249	476.92940	-878.11272	910.52643	505.23983	-1064.35631	875.73334	730.97305	-1026.54800	889.24911	394.22901	-1024.65950	451.19404	640.95627	-1132.45422	487.01210	685.22697	-1111.36818	486.07075	567.01447	-1010.59944	463.52341	507.91866	-1094.76982	480.52750	411.46015	-1118.09998	480.16201	535.76191	-1098.54797	166.17586	663.59581	-1131.36177	163.07196	597.65347	-1180.09079	154.77684	666.55235	-1066.82030	166.56164	456.41434	-1127.74994	168.33115	420.69271	-1126.68236	173.98506	510.15125 
27	20.450	-213.80241	1081.58791	694.58588	-275.96888	1090.87090	498.29197	-111.60696	1112.39975	408.36426	-30.73423	1097.23274	638.99742	-225.05224	1417.36404	582.05536	-153.09639	1520.57663	579.78668	-402.03087	1503.93204	565.76347	-286.44930	1613.33008	510.87219	-290.05138	1594.97192	657.96471	-180.49566	1435.65414	368.11050	-139.99948	1117.71027	282.23118	-110.83735	1100.86113	333.89050	-204.05613	1126.24352	324.77455	-233.51665	888.55095	293.74538	-264.88247	901.49940	325.18913	-238.99559	896.42532	359.35276	-107.80760	1443.67279	755.89188	-74.52732	1123.85361	766.43303	-132.05352	1149.81300	829.93607	-62.93727	1143.12386	834.32274	-237.16141	912.10510	815.67474	-224.70428	901.23619	860.13283	-180.77702	889.28101	848.63762	-168.93959	924.53354	364.88052	-129.28339	894.59038	728.60275	-239.97248	422.45155	412.93243	-171.78894	452.67345	358.60500	-177.95643	429.65256	480.98705	-186.81864	447.04430	691.28510	-81.99833	471.65596	670.70145	-182.95456	443.11344	597.83474	-202.62255	181.48708	378.68309	-179.44447	175.10529	440.85392	-126.51772	173.08226	371.13747	-123.63811	163.36159	679.52988	-69.86383	166.32153	617.91679	-149.77115	173.97066	612.46628	-970.51460	1033.80341	471.50051	-963.66531	1040.14473	631.01711	-1121.82457	1035.29030	647.81929	-1094.06799	1039.67445	466.00174	-1046.20895	1378.57956	562.89593	-1183.40034	1410.03754	547.67986	-986.95259	1585.57068	584.99714	-1140.80193	1552.27371	654.77760	-1127.00050	1562.44965	492.06894	-1122.38510	1344.90845	735.37064	-1020.73608	1075.22324	765.21873	-1074.69109	1045.88959	784.78409	-1046.25702	1059.86458	715.82802	-888.69263	897.78015	665.87288	-880.39482	934.91730	640.54924	-915.55840	930.89661	620.31929	-1071.01273	1351.95465	384.80694	-1020.66017	1043.37234	338.84190	-995.49820	1067.47192	405.90878	-977.42935	1062.55959	354.21230	-928.65974	890.01144	497.22942	-895.92834	878.26538	477.13184	-878.35617	910.07652	505.19077	-1064.63272	875.75783	731.10252	-1026.96976	889.30748	394.36825	-1025.05066	451.17493	641.05476	-1132.73849	486.97517	685.32631	-1111.74599	486.07365	567.08576	-1011.15952	463.47645	508.09803	-1095.14053	480.52414	411.52622	-1118.42934	480.11829	535.84530	-1098.64273	166.17785	663.59177	-1131.47987	163.06000	597.66010	-1180.16495	154.72887	666.60599	-1066.95129	166.56080	456.46477	-1127.85202	168.31736	420.69775	-1126.77559	173.89936	510.18070 
28	20.467	-212.76205	1081.26381	694.39781	-274.96277	1090.46646	497.84184	-110.58413	1112.36839	408.03780	-29.80826	1097.38174	638.65837	-226.22339	1416.02325	582.03583	-155.40678	1520.29236	579.63818	-404.26346	1500.76141	565.53505	-289.67915	1611.25702	510.51888	-293.17081	1592.99850	657.64694	-182.04475	1434.92676	368.03288	-138.25175	1117.72156	281.32828	-109.17418	1100.92728	333.08620	-202.67206	1125.79712	323.48358	-230.30712	887.86377	292.70664	-262.28466	900.89890	323.51673	-236.84813	896.14792	358.14255	-110.12407	1443.63358	755.98236	-73.26058	1124.12941	766.72928	-130.76022	1149.88815	830.03036	-61.90977	1143.47977	834.58717	-238.11169	914.01878	814.21616	-225.67495	902.66060	858.62961	-181.71396	890.10155	847.17361	-167.71763	924.45267	364.63799	-128.58930	894.56833	728.37883	-239.65998	422.46208	412.65930	-171.41750	452.64828	358.33038	-178.18233	429.81773	480.93880	-186.42029	447.07661	691.32271	-81.58405	471.64803	670.52315	-182.63601	443.09551	597.92389	-202.43593	181.48350	378.49213	-179.29523	175.11707	440.63885	-126.36518	173.02120	370.92293	-123.63279	163.35943	679.62021	-69.74390	166.21403	618.01929	-149.60672	173.97682	612.50343	-970.62424	1033.66676	471.56239	-963.69080	1040.02930	631.05003	-1121.96167	1035.53146	648.00606	-1094.18030	1039.79080	466.17329	-1045.41481	1379.12247	562.75665	-1183.07724	1408.92761	547.41272	-988.03558	1587.01324	584.89769	-1141.68678	1551.55838	654.59366	-1127.82143	1562.11639	491.88305	-1121.56151	1345.25909	735.31700	-1020.61188	1075.25314	765.16930	-1074.71481	1046.10062	784.62135	-1045.93300	1060.00427	715.66673	-889.04144	897.32346	666.03348	-880.54100	934.41383	640.70137	-915.65872	930.57297	620.37457	-1070.27649	1351.93359	384.69746	-1020.56641	1043.28224	338.91518	-995.37231	1067.28470	406.01280	-977.28287	1062.33337	354.37141	-929.02565	890.01755	497.72038	-896.44051	877.84294	477.29897	-878.64700	909.63165	505.25913	-1064.91066	875.76508	731.25702	-1027.40417	889.34822	394.47491	-1025.40634	451.15509	641.05995	-1133.00499	486.95755	685.43045	-1112.14676	486.09028	567.17247	-1011.29173	463.51433	508.03394	-1095.45364	480.48946	411.58379	-1118.86948	480.12508	535.98389	-1098.75977	166.15942	663.62411	-1131.59935	163.02410	597.70592	-1180.24330	154.64259	666.61125	-1067.03651	166.56445	456.47457	-1127.93701	168.27383	420.71011	-1126.84525	173.85836	510.20348 
29	20.483	-212.04666	1080.90508	694.18259	-274.19861	1090.00847	497.49203	-110.39111	1112.48550	408.26233	-29.28953	1097.61116	638.40115	-227.32634	1415.52963	582.51060	-156.85953	1520.14618	579.38461	-405.71445	1500.96313	565.24563	-290.66603	1610.80841	509.91299	-294.18293	1593.05099	657.06360	-183.54427	1434.41299	367.81944	-136.70958	1117.77298	280.48750	-107.94327	1101.09825	332.37686	-201.43270	1125.40451	322.13722	-227.34617	887.18987	291.54182	-259.74070	900.21706	321.87637	-234.82025	895.74768	356.81572	-112.21720	1443.61359	756.09032	-72.24521	1124.55444	767.10884	-129.97690	1150.04654	830.07813	-61.25230	1143.99216	834.85252	-238.41919	915.34393	812.54784	-225.98740	903.49464	856.78253	-182.03419	890.60936	845.19073	-166.77406	924.37485	364.36874	-127.95613	894.52560	728.09616	-239.40619	422.41138	412.46384	-171.04755	452.61322	358.00686	-178.35613	429.88426	480.84698	-186.03880	447.12128	691.36482	-81.13559	471.57536	670.61691	-182.41743	443.07800	597.96360	-202.33019	181.47362	378.36037	-179.32272	175.15423	440.56149	-126.25330	172.98281	370.79750	-123.54865	163.35321	679.65286	-69.66682	166.18454	618.06324	-149.47786	174.00024	612.54272	-970.76942	1033.51509	471.64341	-963.76923	1039.91638	631.14250	-1122.03560	1035.71770	648.16879	-1094.32480	1039.92264	466.33125	-1044.71977	1379.54041	562.75768	-1182.68265	1407.98065	547.21878	-989.27467	1588.16376	585.16418	-1142.49702	1551.02646	654.35768	-1128.43521	1561.75934	491.73244	-1120.76920	1345.57281	735.25475	-1020.38376	1075.30357	765.12001	-1074.54155	1046.29089	784.46350	-1045.73990	1060.11803	715.63408	-889.41383	896.81740	666.18568	-880.67406	933.91197	640.77469	-915.88783	930.10155	620.42427	-1069.50516	1351.93039	384.65199	-1020.47943	1043.21892	339.01268	-995.29564	1067.14767	406.14120	-977.14378	1062.18269	354.53678	-929.41978	889.93080	498.16704	-896.90720	877.34001	477.34299	-879.03961	909.08150	505.36194	-1065.24673	875.79697	731.41098	-1027.87453	889.34769	394.58385	-1025.72922	451.13186	641.03340	-1133.28232	486.93920	685.52032	-1112.46231	486.03878	567.22530	-1011.57379	463.46001	508.05874	-1095.75401	480.46463	411.62090	-1119.19113	480.06184	536.02482	-1098.88405	166.12385	663.63701	-1131.72691	162.97623	597.70065	-1180.28107	154.56090	666.65642	-1067.15576	166.54776	456.50108	-1128.05260	168.23620	420.74886	-1126.92787	173.80123	510.20130 
